# xmcd CD database file generated by MAGIX-FreeDB-MP3_Maker_12 v2.0beta1
# 
# Track frame offsets:
#      150
#      12585
#      26593
#      41303
#      51584
#      68609
#      81107
#      100612
#      114019
#      126458
#      137053
#      147741
#      162094
#      186480
#      195307
#      205944
#      217488
#      229233
#      246035
# 
# Disc length: 3445 seconds
# 
# Revision: 0 
# Processed by: cddbd v1.5.2PL0 Copyright (c) Steve Scherf et al.
# Submitted via: MAGIX-FreeDB-MP3_Maker_12 v2.0beta1
# 
DISCID=180d7313
DTITLE=Lee DorseyIke and Tina Turner - Heart and Soul - Rescue Me
DYEAR=1900
DGENRE=Ballad
TTITLE0=Climax - Precious and Few
TTITLE1=Wilson Pickett - It's too late
TTITLE2=Sam and Dave - When something is wrong with my Baby
TTITLE3=The Esquires - Get on Up
TTITLE4=The Temptations Original Lead Singers - Just my Imagination
TTITLE5=Fontella Bass - Rescue Me
TTITLE6=The Supremes - Stoned Love
TTITLE7=Ben E. King - Stand by Me
TTITLE8=The Temptations Original Lead Singers - Beauty is only skin deep
TTITLE9=The Cristals - Da doo ron ron
TTITLE10=Lee Dorsey - Get out of my life woman
TTITLE11=Ike and Tina Turner - Baby get it on
TTITLE12=Bobby Womack and Patti Labelle - Love has finally come at last
TTITLE13=Al Jarreau - Ain't no Sunshine
TTITLE14=The Soul Survivors - Expressway to your Heart
TTITLE15=Wilson Pickett - If you need me
TTITLE16=The Fantastics - Something old something new
TTITLE17=Solomon Burke - Hold on i'm coming
TTITLE18=King Curtis and The Noble Knights - Soul Twist
EXTD=
EXTT0=
EXTT1=
EXTT2=
EXTT3=
EXTT4=
EXTT5=
EXTT6=
EXTT7=
EXTT8=
EXTT9=
EXTT10=
EXTT11=
EXTT12=
EXTT13=
EXTT14=
EXTT15=
EXTT16=
EXTT17=
EXTT18=
PLAYORDER=
